<svg width="21" height="20" viewBox="0 0 21 20" fill="none" xmlns="http://www.w3.org/2000/svg">
<path fill-rule="evenodd" clip-rule="evenodd" d="M13.7741 4.99967C14.391 4.99967 14.9296 4.66451 15.2178 4.16634H17.1074C17.5677 4.16634 17.9408 4.53944 17.9408 4.99967V6.77136C16.5031 7.14139 15.4408 8.44651 15.4408 9.99967C15.4408 11.5528 16.5031 12.8579 17.9408 13.228V14.9997C17.9408 15.4599 17.5677 15.833 17.1074 15.833H15.2178C14.9296 15.3348 14.391 14.9997 13.7741 14.9997C13.1572 14.9997 12.6186 15.3348 12.3304 15.833H3.77409C3.31386 15.833 2.94076 15.4599 2.94076 14.9997V13.228C4.37845 12.8579 5.44076 11.5528 5.44076 9.99967C5.44076 8.44651 4.37845 7.14139 2.94076 6.77136V4.99967C2.94076 4.53944 3.31386 4.16634 3.77409 4.16634H12.3304C12.6186 4.66451 13.1572 4.99967 13.7741 4.99967ZM16.2741 9.99967C16.2741 8.61892 17.3933 7.49967 18.7741 7.49967V4.99967C18.7741 4.0792 18.0279 3.33301 17.1074 3.33301H14.6074C14.6074 3.79324 14.2343 4.16634 13.7741 4.16634C13.3138 4.16634 12.9408 3.79324 12.9408 3.33301H3.77409C2.85361 3.33301 2.10742 4.0792 2.10742 4.99967V7.49967C3.48813 7.49967 4.60742 8.61892 4.60742 9.99967C4.60742 11.3804 3.48813 12.4997 2.10742 12.4997V14.9997C2.10742 15.9202 2.85361 16.6663 3.77409 16.6663H12.9408C12.9408 16.2061 13.3138 15.833 13.7741 15.833C14.2343 15.833 14.6074 16.2061 14.6074 16.6663H17.1074C18.0279 16.6663 18.7741 15.9202 18.7741 14.9997V12.4997C17.3933 12.4997 16.2741 11.3804 16.2741 9.99967ZM13.7741 7.49967C14.2343 7.49967 14.6074 7.12658 14.6074 6.66634C14.6074 6.20611 14.2343 5.83301 13.7741 5.83301C13.3138 5.83301 12.9408 6.20611 12.9408 6.66634C12.9408 7.12658 13.3138 7.49967 13.7741 7.49967ZM13.7741 10.833C14.2343 10.833 14.6074 10.4599 14.6074 9.99967C14.6074 9.53942 14.2343 9.16634 13.7741 9.16634C13.3138 9.16634 12.9408 9.53942 12.9408 9.99967C12.9408 10.4599 13.3138 10.833 13.7741 10.833ZM14.6074 13.333C14.6074 13.7933 14.2343 14.1663 13.7741 14.1663C13.3138 14.1663 12.9408 13.7933 12.9408 13.333C12.9408 12.8728 13.3138 12.4997 13.7741 12.4997C14.2343 12.4997 14.6074 12.8728 14.6074 13.333Z" fill="#707070"/>
</svg>
